<svg xmlns="http://www.w3.org/2000/svg" width="34" height="34" viewBox="0 0 34 34"><g><g><path fill="#233537" d="M33.846 17.001c0 9.182-7.444 16.625-16.625 16.625-9.182 0-16.625-7.443-16.625-16.625S8.039.376 17.22.376c9.181 0 16.625 7.443 16.625 16.625z"/></g><g><path fill="#fff" d="M13.41 12.957c.792 0 1.483.2 2.07.595.585.397.88 1.038.88 1.926v5.564h-2.093v-5.327c0-.348-.08-.578-.239-.69-.158-.11-.364-.165-.618-.165zm5.232 0c.792 0 1.481.2 2.068.595.587.397.88 1.038.88 1.926v5.564h-2.092v-5.327c0-.348-.08-.578-.238-.69-.16-.11-.366-.165-.618-.165z"/></g></g></svg>